<svg xmlns="http://www.w3.org/2000/svg" version="1.1" viewBox="0 0 32 40" x="0px" y="0px"><title>close</title><path fill="#000000" d="M23.879 21.22l-5.224-5.221 5.22-5.224c0.602-0.6 0.602-1.565 0.002-2.167l-0.485-0.486c-0.285-0.292-0.675-0.451-1.085-0.451-0.002 0-0.002 0-0.002 0-0.41 0-0.795 0.161-1.083 0.45l-5.222 5.226-5.224-5.22c-0.599-0.6-1.563-0.603-2.165-0.003l-0.486 0.481c-0.293 0.287-0.453 0.677-0.453 1.086 0 0.411 0.161 0.798 0.45 1.086l5.226 5.222-5.221 5.224c-0.602 0.6-0.602 1.565-0.002 2.169l0.485 0.485c0.287 0.292 0.676 0.451 1.086 0.451 0.408 0 0.798-0.163 1.085-0.45l5.221-5.225 5.222 5.219c0.296 0.299 0.69 0.45 1.085 0.45 0.391 0 0.783-0.149 1.082-0.447l0.485-0.484c0.294-0.285 0.453-0.675 0.453-1.085 0.002-0.41-0.159-0.797-0.448-1.086z"/><text x="0" y="47" fill="#000000" font-size="5px" font-weight="bold" font-family="'Helvetica Neue', Helvetica, Arial-Unicode, Arial, Sans-serif">Created by O s t r e a</text><text x="0" y="52" fill="#000000" font-size="5px" font-weight="bold" font-family="'Helvetica Neue', Helvetica, Arial-Unicode, Arial, Sans-serif">from the Noun Project</text></svg>