<svg xmlns="http://www.w3.org/2000/svg" xmlns:xlink="http://www.w3.org/1999/xlink" version="1.1" x="0px" y="0px" viewBox="0 0 100 125" style="enable-background:new 0 0 100 100;" xml:space="preserve"><path d="M84.7,53.7H15.1c-2.1,0-3.8-1.7-3.8-3.8v0c0-2.1,1.7-3.8,3.8-3.8h69.7c2.1,0,3.8,1.7,3.8,3.8v0C88.6,52,86.9,53.7,84.7,53.7  z"/><path d="M84.7,23.7H15.1c-2.1,0-3.8-1.7-3.8-3.8v0c0-2.1,1.7-3.8,3.8-3.8h69.7c2.1,0,3.8,1.7,3.8,3.8v0C88.6,22,86.9,23.7,84.7,23.7  z"/><path d="M84.7,83.7H15.1c-2.1,0-3.8-1.7-3.8-3.8v0c0-2.1,1.7-3.8,3.8-3.8h69.7c2.1,0,3.8,1.7,3.8,3.8v0C88.6,82,86.9,83.7,84.7,83.7  z"/></svg>